Director:
Tyler Perry

Writer:
Tyler Perry

Stars:
Jurnee Smollett-Bell, Kim Kardashian, Vanessa Williams

Genres:
Drama

Country:
USA

Language:
English


Thanks: JUSTiCE


Format                                   : AVI
Format/Info                              : Audio Video Interleave
File size                                : 701 MiB
Duration                                 : 1h 46mn
Overall bit rate                         : 921 Kbps
Writing application                      : Lavf54.59.103

Video
ID                                       : 0
Format                                   : MPEG-4 Visual
Format profile                           : Simple@L3
Format settings, BVOP                    : No
Format settings, QPel                    : No
Format settings, GMC                     : No warppoints
Format settings, Matrix                  : Default (H.263)
Codec ID                                 : XVID
Codec ID/Hint                            : XviD
Duration                                 : 1h 46mn
Bit rate                                 : 845 Kbps
Width                                    : 640 pixels
Height                                   : 320 pixels
Display aspect ratio                     : 1.950
Frame rate                               : 29.970 fps
Color space                              : YUV
Chroma subsampling                       : 4:2:0
Bit depth                                : 8 bits
Scan type                                : Progressive
Compression mode                         : Lossy
Bits/(Pixel*Frame)                       : 0.138
Stream size                              : 643 MiB (92%)
Writing library                          : XviD 64

Audio
ID                                       : 1
Format                                   : AC-3
Format/Info                              : Audio Coding 3
Mode extension                           : CM (complete main)
Format settings, Endianness              : Big
Codec ID                                 : 2000
Duration                                 : 1h 46mn
Bit rate mode                            : Constant
Bit rate                                 : 64.0 Kbps
Channel(s)                               : 2 channels
Channel positions                        : Front: L R
Sampling rate                            : 48.0 KHz
Bit depth                                : 16 bits
Compression mode                         : Lossy
Stream size                              : 48.7 MiB (7%)
Alignment                                : Aligned on interleaves
Interleave, duration                     : 32 ms (0.96 video frame)

Screens: 
http://i.imgur.com/BkTvsET.png 
http://i.imgur.com/BDxrCaD.png 
http://i.imgur.com/0R2MFgr.png 
http://i.imgur.com/IXWUw40.png